<svg width="13" height="13" fill="none" xmlns="http://www.w3.org/2000/svg"><g clip-path="url(#clip0)" fill="#0096FF"><path d="M10.383.372H1.9A1.76 1.76 0 00.14 2.13v8.485a1.76 1.76 0 001.758 1.757h8.484a1.76 1.76 0 001.758-1.758V2.13A1.76 1.76 0 0010.383.372zm-4.219 9.14A3.168 3.168 0 013 6.35a3.168 3.168 0 013.164-3.164A3.168 3.168 0 019.328 6.35a3.168 3.168 0 01-3.164 3.164zM9.68 3.889a1.056 1.056 0 010-2.11 1.056 1.056 0 010 2.11z"/><path d="M9.68 2.482a.352.352 0 100 .703.352.352 0 000-.703zM6.164 3.888a2.464 2.464 0 00-2.46 2.46 2.464 2.464 0 002.46 2.462 2.464 2.464 0 002.461-2.461 2.464 2.464 0 00-2.46-2.461z"/></g><defs><clipPath id="clip0"><path fill="#fff" transform="translate(.14 .372)" d="M0 0h12v12H0z"/></clipPath></defs></svg>