<svg width="17" height="14" fill="none" xmlns="http://www.w3.org/2000/svg"><path d="M16.51 2.011a6.979 6.979 0 01-1.944.538A3.384 3.384 0 0016.051.665a6.702 6.702 0 01-2.14.825A3.365 3.365 0 0011.447.412c-1.868 0-3.372 1.532-3.372 3.41 0 .27.022.53.078.777-2.805-.138-5.287-1.497-6.955-3.566a3.459 3.459 0 00-.462 1.723c0 1.18.602 2.227 1.499 2.833a3.306 3.306 0 01-1.524-.42v.038a3.416 3.416 0 002.703 3.35 3.335 3.335 0 01-.885.111 2.94 2.94 0 01-.639-.058c.438 1.35 1.678 2.343 3.153 2.375A6.736 6.736 0 01.86 12.439a6.32 6.32 0 01-.808-.047 9.429 9.429 0 005.176 1.53c6.21 0 9.604-5.196 9.604-9.7a7.91 7.91 0 00-.013-.441 6.77 6.77 0 001.692-1.77z" fill="#0096FF"/></svg>