<svg width="13" height="13" viewBox="0 0 13 13" fill="none" xmlns="http://www.w3.org/2000/svg">
<g clip-path="url(#clip0)">
<path d="M10.3831 0.372314H1.89868C0.929504 0.372314 0.140869 1.16095 0.140869 2.13013V10.6145C0.140869 11.5837 0.929504 12.3723 1.89868 12.3723H10.3831C11.3522 12.3723 12.1409 11.5837 12.1409 10.6145V2.13013C12.1409 1.16095 11.3522 0.372314 10.3831 0.372314ZM6.16431 9.51294C4.41959 9.51294 3.00024 8.0936 3.00024 6.34888C3.00024 4.60416 4.41959 3.18481 6.16431 3.18481C7.90903 3.18481 9.32837 4.60416 9.32837 6.34888C9.32837 8.0936 7.90903 9.51294 6.16431 9.51294ZM9.67993 3.88794C9.09839 3.88794 8.62524 3.41479 8.62524 2.83325C8.62524 2.25171 9.09839 1.77856 9.67993 1.77856C10.2615 1.77856 10.7346 2.25171 10.7346 2.83325C10.7346 3.41479 10.2615 3.88794 9.67993 3.88794Z" fill="#0096FF"/>
<path d="M9.67993 2.48169C9.48593 2.48169 9.32837 2.63925 9.32837 2.83325C9.32837 3.02725 9.48593 3.18481 9.67993 3.18481C9.87393 3.18481 10.0315 3.02725 10.0315 2.83325C10.0315 2.63925 9.87393 2.48169 9.67993 2.48169Z" fill="#0096FF"/>
<path d="M6.16431 3.88794C4.8075 3.88794 3.70337 4.99207 3.70337 6.34888C3.70337 7.70569 4.8075 8.80981 6.16431 8.80981C7.52112 8.80981 8.62524 7.70569 8.62524 6.34888C8.62524 4.99207 7.52112 3.88794 6.16431 3.88794Z" fill="#0096FF"/>
</g>
<defs>
<clipPath id="clip0">
<rect width="12" height="12" fill="white" transform="translate(0.140869 0.372314)"/>
</clipPath>
</defs>
</svg>
