<svg width="17" height="14" viewBox="0 0 17 14" fill="none" xmlns="http://www.w3.org/2000/svg">
<path d="M16.5106 2.01112C15.8985 2.28236 15.2464 2.46215 14.5664 2.54944C15.2659 2.12752 15.7998 1.46449 16.0508 0.665316C15.3986 1.05815 14.6786 1.33562 13.9112 1.49047C13.2919 0.824319 12.4094 0.411743 11.4466 0.411743C9.57854 0.411743 8.07465 1.94357 8.07465 3.82146C8.07465 4.09167 8.09729 4.35147 8.15283 4.59881C5.34771 4.46059 2.86559 3.10232 1.19816 1.0332C0.907051 1.54347 0.736296 2.12752 0.736296 2.75625C0.736296 3.93682 1.33805 4.98333 2.23503 5.5892C1.69294 5.57881 1.16113 5.4198 0.710579 5.16935C0.710579 5.17974 0.710579 5.19325 0.710579 5.20676C0.710579 6.8633 1.88015 8.23924 3.41386 8.55621C3.13921 8.63207 2.83988 8.66844 2.52923 8.66844C2.31321 8.66844 2.09514 8.65597 1.89044 8.61025C2.32761 9.96021 3.56816 10.9527 5.04324 10.9849C3.89527 11.8921 2.43768 12.4388 0.859733 12.4388C0.583027 12.4388 0.317637 12.4263 0.0522461 12.392C1.54687 13.3658 3.3182 13.9218 5.22839 13.9218C11.4373 13.9218 14.8318 8.7256 14.8318 4.22157C14.8318 4.07088 14.8267 3.92539 14.8195 3.78093C15.4891 3.30081 16.0518 2.70117 16.5106 2.01112Z" fill="#0096FF"/>
</svg>
